HIERARCHY
ROOT Hips
{
     OFFSET 1.88212 96.90440 -13.34250
     CHANNELS 6 Xposition Yposition Zposition Zrotation Xrotation Yrotation
     JOINT Spine
     {
          OFFSET 0.00000 11.89050 0.00000
          CHANNELS 3 Zrotation Xrotation Yrotation
          JOINT Spine1
          {
               OFFSET -0.00000 25.65740 0.12766
               CHANNELS 3 Zrotation Xrotation Yrotation
               JOINT HEad
               {
                    OFFSET 0.00000 8.73416 0.01134
                    CHANNELS 3 Zrotation Xrotation Yrotation
                    End Site
                    {
                         OFFSET -0.29000 12.77420 2.51395
                    }
               }
               JOINT LeftShoulder1
               {
                    OFFSET 8.99000 -0.36225 -0.22000
                    CHANNELS 3 Zrotation Xrotation Yrotation
                    JOINT LeftArm
                    {
                         OFFSET 10.28270 -0.00338 0.32212
                         CHANNELS 3 Zrotation Xrotation Yrotation
                         JOINT LeftForeArm
                         {
                              OFFSET 32.76690 0.09914 -1.42434
                              CHANNELS 3 Zrotation Xrotation Yrotation
                              JOINT LeftHand
                              {
                                   OFFSET 27.56430 0.08536 1.02216
                                   CHANNELS 3 Zrotation Xrotation Yrotation
                                   End Site
                                   {
                                        OFFSET 16.74430 -0.60000 1.50291
                                   }
                              }
                         }
                    }
               }
               JOINT RightShoulder
               {
                    OFFSET -8.99000 -0.36225 -0.22000
                    CHANNELS 3 Zrotation Xrotation Yrotation
                    JOINT RightArm
                    {
                         OFFSET -10.28270 -0.00338 0.32212
                         CHANNELS 3 Zrotation Xrotation Yrotation
                         JOINT RightForeArm
                         {
                              OFFSET -32.89710 0.09914 -1.42434
                              CHANNELS 3 Zrotation Xrotation Yrotation
                              JOINT RightHand
                              {
                                   OFFSET -27.49210 0.08536 1.02216
                                   CHANNELS 3 Zrotation Xrotation Yrotation
                                   End Site
                                   {
                                        OFFSET -16.63120 -0.60000 1.50291
                                   }
                              }
                         }
                    }
               }
          }
     }
     JOINT LeftUpLeg
     {
          OFFSET 8.94580 -8.66707 0.10165
          CHANNELS 3 Zrotation Xrotation Yrotation
          JOINT LeftLeg
          {
               OFFSET 0.00000 -44.42270 1.37270
               CHANNELS 3 Zrotation Xrotation Yrotation
               JOINT LeftFoot
               {
                    OFFSET -0.25355 -42.09240 -1.46059
                    CHANNELS 3 Zrotation Xrotation Yrotation
                    JOINT LeftToes
                    {
                         OFFSET -0.04000 -4.41509 8.49910
                         CHANNELS 3 Zrotation Xrotation Yrotation
                         End Site
                         {
                              OFFSET 0.08000 -0.04745 9.77979
                         }
                    }
               }
          }
     }
     JOINT RightUpLeg
     {
          OFFSET -8.94580 -8.66707 0.10165
          CHANNELS 3 Zrotation Xrotation Yrotation
          JOINT RightLeg
          {
               OFFSET 0.00000 -44.42270 1.37270
               CHANNELS 3 Zrotation Xrotation Yrotation
               JOINT RightFoot
               {
                    OFFSET 0.25355 -42.09240 -1.46059
                    CHANNELS 3 Zrotation Xrotation Yrotation
                    JOINT RightToes
                    {
                         OFFSET 0.04000 -4.41509 8.49910
                         CHANNELS 3 Zrotation Xrotation Yrotation
                         End Site
                         {
                              OFFSET -0.08000 -0.13745 9.77979
                         }
                    }
               }
          }
     }
}
MOTION
Frames: 20
Frame Time: 0.01667
41.85647 93.61494 -117.43776 1.71259 1.48853 -18.85543 3.89052 -1.45228 4.33127 -0.04151 0.07285 0.02867 -15.50031 13.18689 16.83759 -26.41491 26.66543 22.99888 -115.60184 -44.63793 -124.72263 -32.99900 42.74556 -83.33561 6.36558 9.21494 -2.01299 -26.76283 31.15600 31.76123 106.44164 -21.47478 93.84440 50.17368 52.26511 84.66424 -2.79873 1.42787 -2.80621 10.52763 -14.05381 4.90704 7.92543 15.31306 -2.53498 12.96590 -0.07768 0.12874 -36.03959 -13.49596 -3.78508 -5.26164 13.70752 -26.21505 -7.55744 7.76910 14.54932 2.06699 -0.02430 0.04613 0.62031 -27.72798 -4.37410 
41.13822 90.97974 -117.65912 3.27080 0.28519 -14.45515 -1.72236 3.82180 3.45082 -0.03915 0.06509 0.01905 -13.81648 12.52303 16.56643 -22.20313 24.55433 18.89397 -118.44563 -41.97648 -121.93626 -34.28442 45.92057 -83.95164 5.25432 11.34583 -3.01856 -21.84847 28.59395 26.95709 100.49812 -22.18050 85.84615 45.86369 53.84108 94.20261 -8.89500 15.19388 2.86229 8.29066 -19.19329 2.51281 8.69118 23.33675 -2.75592 15.88367 -0.04952 0.11018 -40.19506 -15.25902 -7.35900 -6.63936 10.72126 -29.08633 -11.26898 17.27924 13.93078 3.19821 -0.01438 0.05948 -3.28092 -16.10852 -12.54557 
40.32167 88.03633 -118.17331 4.73665 -0.76919 -10.51277 -7.31312 10.18235 3.92050 -0.03191 0.05726 0.00697 -12.05824 11.84059 16.64990 -17.88037 21.87203 14.51517 -120.44170 -39.82533 -120.18301 -35.30556 48.67702 -84.76748 12.65831 -2.76417 7.19213 -16.45602 25.63655 21.90029 96.65661 -22.14919 81.15079 42.42455 54.50550 100.43546 -4.12708 -7.63847 -11.78913 5.91202 -24.95526 1.06746 10.55082 31.76362 -4.69783 18.69505 -0.03530 0.09828 -44.32833 -17.00269 -10.49939 -8.49078 6.79241 -30.67523 -15.56511 27.91477 14.60658 4.25134 -0.05452 0.06567 -1.41040 -28.36889 -8.68538 
39.33850 84.54642 -119.04710 6.12676 -1.66287 -6.92790 -12.74122 17.08624 5.28193 -0.02418 0.05623 -0.00296 -10.66505 11.10265 17.65975 -21.05603 28.36257 15.36105 -124.30513 -30.46319 -125.54972 -40.05527 51.36636 -82.24667 5.57078 13.04992 -3.25959 -18.98684 31.50768 23.06977 99.08543 -22.88746 85.68062 40.64654 55.07679 103.43253 -9.71990 10.21116 -1.57944 3.50515 -31.21456 0.50237 14.23086 40.47840 -9.00592 21.35531 -0.02011 0.09095 -48.55994 -19.01189 -13.46264 -10.67460 1.92818 -31.24340 -22.04697 41.07214 18.02481 5.96581 -0.03791 0.11645 -6.88848 -15.82335 -4.93810 
38.29942 81.03495 -120.18362 7.46379 -2.37744 -3.68264 -18.21369 24.31975 7.56083 -0.01760 0.05434 -0.00704 -9.03146 9.37463 18.30279 -15.90728 24.63165 10.29297 -125.87025 -29.78368 -121.72652 -42.90376 54.02722 -81.12572 14.97567 -4.50517 13.34626 -12.16336 27.67917 17.51390 94.71674 -22.85987 80.00530 45.45401 54.81519 97.25529 -3.54524 7.14077 0.09590 1.19228 -37.89022 0.85376 21.14602 49.07913 -17.03276 23.58618 -0.00371 0.07534 -52.78149 -21.21104 -16.22300 -13.02011 -3.71526 -30.90837 -32.22066 53.93937 26.09321 6.84155 -0.09630 0.05924 -6.82065 -26.76810 -8.88786 
37.22499 77.44994 -121.52115 8.77018 -2.90264 -0.79256 -23.96361 31.68886 10.84525 -0.00846 0.05463 -0.00957 -7.33765 6.69474 18.64146 -11.43390 20.47778 5.90944 -126.92501 -29.42764 -118.83874 -44.35229 56.71024 -81.29097 13.54060 7.42915 3.04259 -5.95849 23.29631 13.00462 91.71361 -22.89083 76.26286 47.14937 54.99047 95.05613 -8.10634 17.31455 7.49784 -1.23865 -43.96633 1.27300 31.10419 55.78962 -28.10544 25.71206 0.00678 0.05963 -56.80695 -23.18547 -18.60380 -15.21838 -9.78572 -29.67586 -51.05524 65.43111 43.59936 8.51790 -0.04356 0.11258 -18.11057 -24.88162 -1.64433 
36.05233 73.47301 -122.97232 10.02006 -3.23554 1.75098 -30.11787 38.99164 15.21648 0.00548 0.05050 -0.01014 -5.81519 3.21100 18.72132 -9.16791 26.96272 7.40079 -129.70155 -18.92906 -122.99898 -47.35391 56.97555 -75.22396 11.23014 2.96530 3.77263 -1.23300 29.63433 13.98066 93.19803 -26.93137 85.98322 47.09309 55.57584 95.10343 -11.59147 -1.63228 -3.39025 -3.62724 -49.58656 1.77683 43.78215 60.10830 -42.02906 27.72946 0.01050 0.04149 -60.57047 -24.70629 -20.39507 -17.57158 -16.21583 -27.61546 -71.47250 68.70345 63.06651 2.64012 -0.04844 -0.02932 -3.54961 -30.25604 -10.61678 
34.89120 69.58434 -124.44444 11.13923 -3.37344 3.88983 -36.85852 46.01298 20.86159 0.01803 0.04963 -0.00841 -4.65620 -0.94068 18.53090 -4.32871 21.15002 3.77598 -130.55000 -23.78472 -119.18087 -48.48860 57.00836 -77.06156 10.11245 9.87837 -4.89189 4.25598 23.48509 10.61156 91.14006 -26.95550 82.86966 45.90825 56.39685 96.42588 -13.60686 6.63264 0.52670 -5.82737 -54.72350 2.38748 57.14911 61.87594 -56.77368 29.64279 0.00991 0.02321 -63.86150 -25.70028 -21.53335 -19.40445 -22.66454 -24.52853 -95.36505 70.03928 85.57867 5.19869 -0.16389 0.00950 -4.11521 -28.27917 -10.55962 
33.79714 65.88206 -125.92244 12.08256 -3.32383 5.58586 -43.86609 52.39924 27.50847 0.02706 0.05262 -0.00766 -4.27638 -5.29051 18.08548 -0.74196 15.36423 1.25972 -131.00407 -26.66683 -116.50809 -48.83075 57.04668 -78.59026 9.38120 7.25324 -2.24092 8.20348 17.40338 8.37056 89.62129 -26.92209 80.55417 44.34826 56.90669 98.14938 -11.25556 3.06823 0.00653 -7.75789 -59.33816 3.07988 68.37067 61.69479 -69.46503 31.46628 0.00673 0.00639 -66.62566 -26.14176 -21.95701 -20.40353 -28.91507 -20.22632 -116.17318 69.77931 104.25145 4.81490 -0.14432 -0.00887 2.06894 -30.10495 -12.77959 
32.71196 62.02006 -127.36952 12.83753 -3.11233 6.81379 -51.27501 58.22803 35.04506 0.04441 0.05563 -0.00959 -4.78949 -9.79211 17.42095 1.81084 9.67447 -0.60306 -131.35257 -32.73021 -114.17711 -49.67159 56.10178 -83.11729 -0.01334 18.42640 13.01995 11.02495 11.50560 6.93905 88.12309 -26.82514 78.82397 42.61895 57.09868 99.97810 -12.33290 7.73783 1.52730 -9.23455 -63.61875 3.90289 76.74532 60.50320 -79.37900 32.98915 0.00271 -0.00545 -68.82752 -26.31602 -21.79378 -20.58559 -34.96178 -14.68496 -134.02090 68.47891 119.75220 8.42875 -0.09653 -0.02698 0.94553 -46.04050 -17.34985 
31.70310 58.48890 -128.75623 13.40909 -2.77329 7.59251 -59.37577 63.64506 43.48279 0.05921 0.05725 -0.01756 -6.23874 -14.43796 16.59707 2.83011 3.94349 -1.91488 -131.43776 -36.57961 -112.52226 -49.80303 55.56131 -85.84707 7.73464 10.42930 -0.93745 12.45775 5.61745 6.20458 86.81256 -26.59389 77.45718 40.93549 56.98233 101.70757 -10.59937 5.77437 0.94485 -9.82377 -67.50828 4.11675 82.10027 59.98064 -86.35442 34.08053 0.00035 -0.01048 -70.44848 -26.19802 -21.23700 -20.01707 -40.78566 -7.98938 -148.79433 66.27748 132.06891 10.91323 -0.08262 -0.03039 -0.64312 -54.18049 -16.07730 
30.74504 55.22852 -130.03290 13.80654 -2.34474 7.96123 -67.17272 67.47786 51.69611 0.01746 -0.04541 -0.02683 -6.54231 -18.59765 15.70289 3.30189 -0.43034 -2.72706 -131.56870 -39.03069 -111.32035 -49.62027 55.21775 -87.54401 2.52596 16.30651 7.40571 13.34047 1.11039 5.80770 85.59206 -26.33762 76.40766 39.45557 56.54534 103.20894 -10.79259 8.66089 1.47931 -9.77547 -71.01090 3.60873 85.74037 60.29744 -91.50193 34.57492 0.00019 -0.00932 -71.50504 -26.02642 -20.43592 -18.79394 -46.36253 -0.34391 -160.24820 63.50549 141.41682 14.98658 -0.03468 -0.06190 2.96258 -49.59416 -11.82380 
29.70313 51.91540 -131.11749 14.05294 -1.88623 7.96137 -73.77486 70.08887 58.69008 0.01400 -0.04788 -0.02584 -5.96645 -22.70755 14.89116 3.35632 -3.89975 -3.37095 -131.87970 -41.08659 -110.33384 -49.38379 55.06514 -88.67243 7.21612 11.22056 -0.28624 13.97388 -2.50041 5.53818 84.10658 -26.02667 75.48562 38.17433 55.80743 104.51104 -9.43697 8.04325 0.86617 -8.99919 -74.31982 2.57696 89.02959 61.25257 -96.13937 34.17867 0.00079 -0.00372 -71.86054 -26.04441 -19.56874 -17.21483 -51.73253 7.74812 -170.81659 59.45016 151.14908 18.92685 -0.05021 -0.02720 -6.61276 -65.88894 -14.72978 
28.65927 48.84869 -132.02005 14.17564 -1.43647 7.66203 -78.33770 71.84753 63.56488 0.00985 -0.04408 -0.02553 -4.56191 -26.81108 14.29631 3.11386 -6.39668 -3.81579 -132.26216 -42.81281 -109.47858 -49.17498 55.04735 -89.42918 4.13344 14.09299 4.32066 14.24428 -5.12347 5.27507 82.68011 -25.67562 74.83629 37.13688 54.86170 105.66121 -9.09256 9.86466 0.93906 -7.44708 -77.38825 1.17290 92.47172 62.66505 -100.74867 32.78862 -0.00027 0.00023 -71.71574 -26.23801 -18.82462 -15.52694 -56.84054 15.79502 -178.33554 54.81915 159.03494 22.20892 -0.07037 -0.00750 -0.25061 -58.45110 -8.01921 
27.59267 45.98233 -132.72450 14.19717 -1.02926 7.12807 -80.33675 73.02925 65.78250 0.00605 -0.03828 -0.02329 -2.43026 -31.00347 13.96016 2.67066 -8.04136 -4.06357 -132.65718 -44.35643 -108.67104 -49.13507 55.06150 -89.99857 7.11775 10.91022 -0.17455 14.29193 -6.87306 5.08967 81.27280 -25.39542 74.41517 36.26973 53.80311 106.61832 -8.01464 9.62689 0.27773 -4.96317 -80.10249 -0.35375 96.25680 64.43037 -105.52993 30.40024 -0.00445 -0.00109 -70.96360 -26.69897 -18.22479 -13.95702 -61.67547 23.30218 -183.02576 50.37210 165.11292 24.96434 -0.08472 0.00216 -21.12560 -76.20920 -24.77238 
26.36995 43.22684 -133.19507 14.14137 -0.69273 6.41380 -75.53871 74.06882 60.60024 0.06649 -0.10160 -0.07178 -0.09146 -34.45675 14.80185 1.40059 -8.18236 -3.56179 -132.96358 -45.85756 -107.71474 -49.22792 55.25816 -90.30361 5.08113 12.12601 2.19660 13.55505 -6.98441 5.54271 79.68993 -25.28816 74.07707 35.49952 52.59822 107.38378 -7.41866 11.18388 0.30710 -0.66902 -82.30466 -0.98107 100.30309 66.36640 -110.47601 26.97731 -0.01124 -0.00957 -69.36896 -27.46131 -17.74100 -12.62759 -66.32093 29.83361 -185.75235 46.40869 169.83452 27.09837 -0.09573 0.00852 -3.82231 -66.16971 -7.16724 
25.17376 40.71986 -133.50696 14.00191 -0.43796 5.56991 -64.23234 74.33857 48.49577 0.05009 -0.09918 -0.06088 2.59871 -37.26510 16.42544 -0.35959 -6.94296 -2.39541 -133.14442 -47.14626 -106.72650 -49.50571 55.47002 -90.48801 7.02989 10.28502 -0.51363 12.29842 -5.57585 6.50980 78.21159 -25.41283 74.03670 34.76638 51.34461 107.86553 -6.58405 10.92318 -0.15669 5.85754 -83.77489 -0.06002 104.26521 68.38787 -115.20725 22.62249 -0.01752 -0.02382 -67.42307 -28.41399 -17.57015 -12.16583 -70.95927 34.57245 -188.95120 43.40827 175.08791 26.78109 -0.12730 0.02959 -7.52237 -69.46888 -9.34504 
23.96638 38.51153 -133.67015 13.79032 -0.25822 4.63972 -53.14186 73.51422 36.76713 -0.01207 -0.00581 -0.00286 5.26450 -39.25019 18.15262 -1.88649 -5.62207 -1.28499 -133.26863 -48.21687 -105.76225 -49.89892 55.71060 -90.47117 5.67853 11.10558 0.79297 11.24759 -4.05712 7.40423 76.83869 -25.64958 74.23939 27.42408 48.38508 112.56620 -6.02146 6.95688 0.09662 13.95687 -84.32788 2.08626 107.58367 70.40973 -119.11580 17.46668 -0.02109 -0.04114 -64.93451 -29.53713 -17.59955 -13.78602 -75.67180 36.18156 -191.67393 40.72792 180.11563 25.22761 -0.13858 0.03586 -4.96709 -66.11251 -6.33220 
22.52963 36.74258 -133.61948 13.54930 -0.13901 3.66814 -40.88174 70.88912 23.80122 0.02487 -0.09556 -0.02578 7.39385 -39.03937 20.19436 -3.64203 -3.05348 0.38147 -133.33266 -49.19638 -104.71067 -50.45637 55.95249 -90.33739 6.75087 10.18488 -1.13227 10.27726 -1.09656 8.46997 76.68036 -27.15162 78.79111 28.53758 46.29967 108.98184 -4.00597 22.18671 3.91649 22.11441 -83.86340 4.47462 109.24826 72.18791 -121.22715 11.62827 -0.02077 -0.05966 -61.91228 -30.85218 -17.83626 -20.19976 -80.23904 31.83325 -193.86946 38.06398 184.44478 23.19959 -0.14612 0.02335 -7.48032 -66.44696 -7.74030 
21.03966 35.29092 -133.43304 13.29290 -0.07012 2.69076 -32.65218 67.55855 15.09081 -0.01548 0.01240 0.00847 9.20623 -38.63037 21.82843 -5.09337 -0.79776 1.90671 -133.48097 -49.98277 -103.87360 -51.13794 56.17069 -90.00175 5.90588 10.90348 -0.16088 9.39632 1.52645 9.49089 76.31773 -28.16806 81.51814 28.85049 45.30336 106.95834 -4.84911 6.52625 1.43165 28.07110 -82.55038 5.20337 108.89700 73.56955 -121.13531 5.26535 -0.01634 -0.07711 -58.62957 -32.20136 -18.32845 -41.34474 -83.99050 11.61184 -195.64006 35.58479 188.12149 19.64970 -0.15540 0.00836 -7.69759 -65.64667 -7.74496 
